# Blender 3.3.6
# www.blender.org
mtllib Rail.mtl
o Rail
v 0.000000 -0.150000 0.320656
v 0.000000 -0.136216 0.319298
v 0.000000 -0.122961 0.315278
v 0.000000 -0.110746 0.308748
v 0.000000 -0.100039 0.299961
v 0.000000 -0.091252 0.289254
v 0.000000 -0.084722 0.277039
v 0.000000 -0.080702 0.263784
v 0.000000 -0.079344 0.250000
v 0.000000 -0.080702 0.236216
v 0.000000 -0.084722 0.222961
v 0.000000 -0.091252 0.210746
v 0.000000 -0.100039 0.200039
v -0.000000 -0.110746 0.191252
v -0.000000 -0.122961 0.184722
v -0.000000 -0.136216 0.180702
v -0.000000 -0.150000 0.179344
v -0.000000 -0.163784 0.180702
v -0.000000 -0.177039 0.184722
v -0.000000 -0.189254 0.191252
v -0.000000 -0.199961 0.200039
v -0.000000 -0.208748 0.210746
v -0.000000 -0.215278 0.222961
v -0.000000 -0.219298 0.236216
v -0.000000 -0.220656 0.250000
v -0.000000 -0.219298 0.263784
v -0.000000 -0.215278 0.277039
v -0.000000 -0.208748 0.289254
v -0.000000 -0.199961 0.299961
v 0.000000 -0.189254 0.308748
v 0.000000 -0.177039 0.315278
v 0.000000 -0.163784 0.319298
v -2.000000 -0.150000 0.320656
v -2.000000 -0.136216 0.319298
v -2.000000 -0.122961 0.315278
v -2.000000 -0.110746 0.308748
v -2.000000 -0.100039 0.299961
v -2.000000 -0.091252 0.289254
v -2.000000 -0.084722 0.277039
v -2.000000 -0.080702 0.263784
v -2.000000 -0.079344 0.250000
v -2.000000 -0.080702 0.236216
v -2.000000 -0.084722 0.222961
v -2.000000 -0.091252 0.210746
v -2.000000 -0.100039 0.200039
v -2.000000 -0.110746 0.191252
v -2.000000 -0.122961 0.184722
v -2.000000 -0.136216 0.180702
v -2.000000 -0.150000 0.179344
v -2.000000 -0.163784 0.180702
v -2.000000 -0.177039 0.184722
v -2.000000 -0.189254 0.191252
v -2.000000 -0.199961 0.200039
v -2.000000 -0.208748 0.210746
v -2.000000 -0.215277 0.222961
v -2.000000 -0.219298 0.236216
v -2.000000 -0.220656 0.250000
v -2.000000 -0.219298 0.263784
v -2.000000 -0.215277 0.277039
v -2.000000 -0.208748 0.289254
v -2.000000 -0.199961 0.299961
v -2.000000 -0.189254 0.308748
v -2.000000 -0.177039 0.315278
v -2.000000 -0.163784 0.319298
vn -0.0000 -0.5556 0.8315
vn -0.0000 -0.7071 0.7071
vn -0.0000 0.8315 -0.5556
vn -0.0000 0.9239 -0.3827
vn -0.0000 -0.3827 0.9239
vn -0.0000 -0.1951 -0.9808
vn -0.0000 -0.0000 -1.0000
vn -0.0000 0.7071 -0.7071
vn -0.0000 -0.1951 0.9808
vn -0.0000 -0.3827 -0.9239
vn -0.0000 0.5556 -0.8315
vn -0.0000 -0.0000 1.0000
vn -0.0000 -0.5556 -0.8315
vn -0.0000 0.3827 -0.9239
vn -0.0000 0.1951 0.9808
vn -0.0000 -0.7071 -0.7071
vn -0.0000 0.1951 -0.9808
vn -0.0000 0.3827 0.9239
vn -0.0000 -0.8315 -0.5556
vn -0.0000 0.5556 0.8315
vn -0.0000 -0.9239 -0.3827
vn -0.0000 0.7071 0.7071
vn -0.0000 -0.9808 -0.1951
vn -0.0000 0.8315 0.5556
vn -0.0000 -1.0000 -0.0000
vn -0.0000 0.9239 0.3827
vn -0.0000 -0.9808 0.1951
vn -0.0000 0.9808 0.1951
vn -0.0000 -0.9239 0.3827
vn -0.0000 1.0000 -0.0000
vn -0.0000 -0.8315 0.5556
vn -0.0000 0.9808 -0.1951
vt 0.000000 0.000000
vt 0.000000 0.000000
vt 0.000000 0.000000
vt 0.000000 0.000000
vt 0.000000 0.000000
vt 0.000000 0.000000
vt 0.000000 0.000000
vt 0.000000 0.000000
vt 0.000000 0.000000
vt 0.000000 0.000000
vt 0.000000 0.000000
vt 0.000000 0.000000
vt 0.000000 0.000000
vt 0.000000 0.000000
vt 0.000000 0.000000
vt 0.000000 0.000000
vt 0.000000 0.000000
vt 0.000000 0.000000
vt 0.000000 0.000000
vt 0.000000 0.000000
vt 0.000000 0.000000
vt 0.000000 0.000000
vt 0.000000 0.000000
vt 0.000000 0.000000
vt 0.000000 0.000000
vt 0.000000 0.000000
vt 0.000000 0.000000
vt 0.000000 0.000000
vt 0.000000 0.000000
vt 0.000000 0.000000
vt 0.000000 0.000000
vt 0.000000 0.000000
vt 0.000000 0.000000
vt 0.000000 0.000000
vt 0.000000 0.000000
vt 0.000000 0.000000
vt 0.000000 0.000000
vt 0.000000 0.000000
vt 0.000000 0.000000
vt 0.000000 0.000000
vt 0.000000 0.000000
vt 0.000000 0.000000
vt 0.000000 0.000000
vt 0.000000 0.000000
vt 0.000000 0.000000
vt 0.000000 0.000000
vt 0.000000 0.000000
vt 0.000000 0.000000
vt 0.000000 0.000000
vt 0.000000 0.000000
vt 0.000000 0.000000
vt 0.000000 0.000000
vt 0.000000 0.000000
vt 0.000000 0.000000
vt 0.000000 0.000000
vt 0.000000 0.000000
vt 0.000000 0.000000
vt 0.000000 0.000000
vt 0.000000 0.000000
vt 0.000000 0.000000
vt 0.000000 0.000000
vt 0.000000 0.000000
vt 0.000000 0.000000
vt 0.000000 0.000000
s 1
f 14/14/1 13/13/2 45/45/2 46/46/1
f 28/28/3 27/27/4 59/59/4 60/60/3
f 15/15/5 14/14/1 46/46/1 47/47/5
f 2/2/6 1/1/7 33/33/7 34/34/6
f 29/29/8 28/28/3 60/60/3 61/61/8
f 16/16/9 15/15/5 47/47/5 48/48/9
f 3/3/10 2/2/6 34/34/6 35/35/10
f 30/30/11 29/29/8 61/61/8 62/62/11
f 17/17/12 16/16/9 48/48/9 49/49/12
f 4/4/13 3/3/10 35/35/10 36/36/13
f 31/31/14 30/30/11 62/62/11 63/63/14
f 18/18/15 17/17/12 49/49/12 50/50/15
f 5/5/16 4/4/13 36/36/13 37/37/16
f 32/32/17 31/31/14 63/63/14 64/64/17
f 19/19/18 18/18/15 50/50/15 51/51/18
f 6/6/19 5/5/16 37/37/16 38/38/19
f 1/1/7 32/32/17 64/64/17 33/33/7
f 20/20/20 19/19/18 51/51/18 52/52/20
f 7/7/21 6/6/19 38/38/19 39/39/21
f 21/21/22 20/20/20 52/52/20 53/53/22
f 8/8/23 7/7/21 39/39/21 40/40/23
f 22/22/24 21/21/22 53/53/22 54/54/24
f 9/9/25 8/8/23 40/40/23 41/41/25
f 23/23/26 22/22/24 54/54/24 55/55/26
f 10/10/27 9/9/25 41/41/25 42/42/27
f 24/24/28 23/23/26 55/55/26 56/56/28
f 11/11/29 10/10/27 42/42/27 43/43/29
f 25/25/30 24/24/28 56/56/28 57/57/30
f 12/12/31 11/11/29 43/43/29 44/44/31
f 26/26/32 25/25/30 57/57/30 58/58/32
f 13/13/2 12/12/31 44/44/31 45/45/2
f 27/27/4 26/26/32 58/58/32 59/59/4
