# Blender 3.3.6
# www.blender.org
o Concrete
v -0.490000 0.000000 0.240000
v -0.490000 0.010000 0.250000
v -0.500000 0.010000 0.240000
v -0.490000 0.490000 0.250000
v -0.490000 0.500000 0.240000
v -0.500000 0.490000 0.240000
v -0.490000 0.000000 -0.240000
v -0.500000 0.010000 -0.240000
v -0.490000 0.010000 -0.250000
v -0.490000 0.500000 -0.240000
v -0.490000 0.490000 -0.250000
v -0.500000 0.490000 -0.240000
v 0.000000 0.000000 0.240000
v 0.000000 0.010000 0.250000
v 0.000000 0.490000 0.250000
v 0.000000 0.500000 0.240000
v 0.000000 0.010000 -0.250000
v 0.000000 0.000000 -0.240000
v 0.000000 0.500000 -0.240000
v 0.000000 0.490000 -0.250000
v 0.490000 0.490000 -0.250000
v 0.490000 0.500000 -0.240000
v 0.500000 0.490000 -0.240000
v 0.490000 0.010000 -0.250000
v 0.500000 0.010000 -0.240000
v 0.490000 0.000000 -0.240000
v 0.490000 0.000000 0.240000
v 0.500000 0.010000 0.240000
v 0.490000 0.010000 0.250000
v 0.490000 0.500000 0.240000
v 0.490000 0.490000 0.250000
v 0.500000 0.490000 0.240000
vn -0.0000 -0.0000 1.0000
vn -0.0000 -1.0000 -0.0000
vn -0.0000 -0.0000 -1.0000
vn -0.0000 1.0000 -0.0000
vn -1.0000 -0.0000 -0.0000
vn 1.0000 -0.0000 -0.0000
vn -0.5774 -0.5774 0.5773
vn -0.5774 0.5774 0.5773
vn -0.5774 -0.5774 -0.5773
vn -0.5774 0.5774 -0.5773
vn 0.5774 0.5774 -0.5773
vn 0.5774 -0.5774 -0.5773
vn 0.5774 -0.5774 0.5773
vn 0.5774 0.5774 0.5773
vn -0.7071 -0.7071 -0.0000
vn -0.7071 -0.0000 0.7071
vn -0.7071 0.7071 -0.0000
vn -0.7071 -0.0000 -0.7071
vn -0.0000 -0.7071 -0.7071
vn -0.0000 0.7071 -0.7071
vn -0.0000 -0.7071 0.7071
vn -0.0000 0.7071 0.7071
vn 0.7071 -0.0000 -0.7071
vn 0.7071 -0.7071 -0.0000
vn 0.7071 0.7071 -0.0000
vn 0.7071 -0.0000 0.7071
s 0
f 14//1 15//1 4//1 2//1
f 13//2 18//2 26//2 27//2
f 17//3 20//3 21//3 24//3
f 19//4 10//4 5//4 16//4
f 3//5 6//5 12//5 8//5
f 9//3 11//3 20//3 17//3
f 25//6 23//6 32//6 28//6
f 19//4 16//4 30//4 22//4
f 15//1 14//1 29//1 31//1
f 1//7 2//7 3//7
f 4//8 5//8 6//8
f 7//9 8//9 9//9
f 10//10 11//10 12//10
f 21//11 22//11 23//11
f 24//12 25//12 26//12
f 27//13 28//13 29//13
f 30//14 31//14 32//14
f 7//15 1//15 3//15 8//15
f 2//16 4//16 6//16 3//16
f 5//17 10//17 12//17 6//17
f 11//18 9//18 8//18 12//18
f 18//19 7//19 9//19 17//19
f 10//20 19//20 20//20 11//20
f 1//21 13//21 14//21 2//21
f 16//22 5//22 4//22 15//22
f 23//23 25//23 24//23 21//23
f 27//24 26//24 25//24 28//24
f 22//25 30//25 32//25 23//25
f 31//26 29//26 28//26 32//26
f 15//22 31//22 30//22 16//22
f 21//20 20//20 19//20 22//20
f 26//19 18//19 17//19 24//19
f 13//21 27//21 29//21 14//21
f 7//2 18//2 13//2 1//2
